<svg xmlns="http://www.w3.org/2000/svg" viewBox="0 0 512 512">
  <rect width="512" height="512" rx="96" fill="#eb3925"/>
  <path fill="#fff" d="M120 304h272v52c0 18-14 32-32 32h-16v28c0 11-9 20-20 20h-24c-11 0-20-9-20-20v-28h-48v28c0 11-9 20-20 20h-24c-11 0-20-9-20-20v-28h-16c-18 0-32-14-32-32v-52Z"/>
  <path fill="#fff" d="M154 158c8-25 32-42 58-42h88c26 0 50 17 58 42l30 94H124l30-94Zm58 10c-6 0-12 4-14 10l-16 50h148l-16-50c-2-6-8-10-14-10h-88Z"/>
  <circle cx="178" cy="318" r="22" fill="#171717"/>
  <circle cx="334" cy="318" r="22" fill="#171717"/>
</svg>
